<svg width="116" height="116" viewBox="0 0 116 116" fill="none" xmlns="http://www.w3.org/2000/svg">
<g clip-path="url(#clip0_243_414)">
<g clip-path="url(#clip1_243_414)">
<path d="M113.926 60.7238H113.954L113.96 62.7538H113.932C113.093 62.4728 112.61 62.3887 111.475 62.3917L106.051 62.4066C104.901 62.4095 104.433 62.4965 103.596 62.7828H103.567L103.562 60.355C103.556 58.6091 104.534 57.8112 106.024 57.8067C107.076 57.8038 107.942 58.1993 108.413 59.0924L111.988 57.9896C113.024 57.6744 113.462 57.4743 113.916 57.1182H113.944L113.949 58.7786L108.743 60.3691L108.745 61.1075L111.471 61.1001C112.607 61.0964 113.09 61.0101 113.926 60.7238ZM103.817 60.5669C103.817 60.709 103.819 60.9082 103.834 61.1209L108.49 61.1083L108.488 60.4978C108.486 59.3906 107.291 59.1236 106.056 59.1273C104.736 59.1311 103.814 59.4456 103.817 60.5669Z" fill="#12535C"/>
<path d="M112.529 72.9079L112.501 72.9042C111.725 72.5294 111.236 72.342 110.239 72.1933L104.636 71.3583C103.653 71.211 103.131 71.2482 102.279 71.3798L102.251 71.3754L102.905 66.9941L104.966 67.0291L104.996 67.1198C104.337 67.4953 103.085 67.9972 102.98 68.4122L102.721 69.7662L107.326 70.4526L107.426 69.7789C107.493 69.3298 106.821 68.7408 106.423 68.4233L106.438 68.3252L109.035 68.7126L109.021 68.8107C108.592 68.9907 107.746 69.3669 107.679 69.8168L107.58 70.4905L112.55 71.2319L112.713 69.7491C112.771 69.0688 111.553 68.0976 110.683 67.4797L110.74 67.3882L113.241 68.1341L112.529 72.9079Z" fill="#12535C"/>
<path d="M110.728 78.5066L101.077 79.6606L106.8 81.6155C107.931 81.9955 108.437 82.052 109.468 81.9011L109.494 81.91L109.049 83.1838L109.022 83.1741C108.268 82.5346 107.845 82.2818 106.707 81.8832L101.063 79.912C100.34 79.7045 99.9667 79.6941 99.2699 79.7521L99.2432 79.7424L99.6744 78.5096L107.684 77.5332L103.333 76.0431C102.203 75.6631 101.696 75.6066 100.666 75.7575L100.639 75.7486L101.084 74.4756L101.111 74.4845C101.865 75.124 102.288 75.3768 103.427 75.7754L110.744 78.3318L110.728 78.5066Z" fill="#12535C"/>
<path d="M104.93 90.3741L104.953 90.389L103.932 92.1431L103.908 92.129C103.326 91.462 102.952 91.1452 101.972 90.5734L97.2848 87.8437C96.2921 87.2644 95.8437 87.1023 94.9774 86.9261L94.9521 86.9112L96.1746 84.8143C97.0535 83.3055 98.3005 83.1115 99.5892 83.8618C100.496 84.3904 101.044 85.1705 100.999 86.1788L104.64 87.0354C105.693 87.2875 106.173 87.3373 106.744 87.2592L106.769 87.2733L105.933 88.7085L100.638 87.4473L100.266 88.0853L102.621 89.4573C103.602 90.0291 104.063 90.1986 104.93 90.3741ZM96.2884 85.1266C96.217 85.2493 96.1166 85.4211 96.0222 85.6122L100.046 87.9567L100.353 87.4288C100.911 86.4725 100.015 85.6389 98.9482 85.0173C97.8075 84.3525 96.8528 84.1577 96.2884 85.1266Z" fill="#12535C"/>
<path d="M98.5522 98.6894C97.3089 100.091 94.6305 99.5363 92.3685 97.5294C90.108 95.5224 89.2179 92.9102 90.4619 91.5093C91.7059 90.1069 94.4327 90.649 96.6947 92.6559C98.9559 94.6636 99.7962 97.2877 98.5522 98.6894ZM98.3618 98.5199C99.2281 97.5428 97.9714 95.6868 95.7525 93.7177C93.5329 91.748 91.5193 90.7018 90.653 91.6788C89.7957 92.6448 91.1029 94.5074 93.3113 96.4675C95.5205 98.4276 97.5037 99.4865 98.3618 98.5199Z" fill="#12535C"/>
<path d="M90.5568 101.869L91.7324 103.632C91.719 103.873 91.5814 104.867 90.6192 105.596C88.967 106.848 86.6388 105.725 84.7969 103.292C82.9543 100.857 82.5052 98.1707 84.2705 96.8337C84.9501 96.3199 85.5197 96.2262 86.0105 96.1221L87.2322 97.5475L87.1905 97.6323C85.5576 96.9809 84.8207 96.7378 84.176 97.2263C83.1343 98.0145 84.1002 100.044 85.9175 102.443C87.7341 104.842 89.4124 106.189 90.3634 105.47C91.1777 104.852 90.8825 103.615 90.4631 101.885L90.5568 101.869Z" fill="#12535C"/>
<path d="M73.2217 113.942L73.2113 113.916C73.1607 113.055 73.0871 112.537 72.7324 111.593L70.7374 106.292C70.3879 105.362 70.1016 104.923 69.5722 104.243L69.5625 104.216L73.708 102.656L74.6799 104.475L74.6152 104.544C73.9668 104.152 72.9191 103.302 72.5056 103.412L71.1969 103.844L72.8365 108.202L73.4745 107.962C73.8999 107.803 74.0865 106.928 74.1705 106.426L74.2635 106.391L75.1885 108.85L75.0955 108.885C74.7297 108.598 73.9898 108.041 73.5645 108.201L72.9265 108.441L74.6962 113.145L76.0711 112.568C76.6943 112.287 76.9501 110.75 77.0668 109.69L77.1746 109.695L77.739 112.243L73.2217 113.942Z" fill="#12535C"/>
<path d="M60.9951 105.708L63.1597 105.314L63.1649 105.341C63.0162 105.873 63.1538 106.786 63.6111 107.871L65.6931 112.802L65.9058 108.031C65.9794 106.372 65.5474 105.427 65.2462 104.962L65.241 104.934L66.6657 104.675L66.6702 104.702C66.3824 105.418 66.2798 106.202 66.2292 107.352L65.8612 115.47L65.5124 115.534L62.2562 107.96C61.7774 106.835 61.4204 106.221 61.0003 105.735L60.9951 105.708Z" fill="#12535C"/>
<path d="M56.0245 116.139L56.0238 116.111C56.2848 115.265 56.3569 114.781 56.3257 113.646L56.1777 108.224C56.1465 107.075 56.0483 106.609 55.742 105.779L55.7412 105.751L57.7705 105.695L57.7712 105.724C57.5102 106.569 57.4381 107.04 57.4693 108.189L57.6173 113.61C57.6478 114.746 57.7467 115.227 58.053 116.055L58.0538 116.084L56.0245 116.139Z" fill="#12535C"/>
<path d="M49.3085 115.345L49.3048 115.372L47.2904 115.117L47.2941 115.09C47.6815 114.294 47.8265 113.827 47.9693 112.699L48.9315 105.109L48.463 105.077C47.9812 105.045 47.222 106.179 46.6197 106.976L46.5527 106.939L47.1186 104.62L52.0902 105.251L52.0598 107.638L51.972 107.654C51.6017 106.734 51.1355 105.445 50.6745 105.358L50.2134 105.271L49.2512 112.862C49.1085 113.989 49.1322 114.478 49.3085 115.345Z" fill="#12535C"/>
<path d="M37.7857 112.583L36.4004 112.163L36.4086 112.135C36.993 111.631 37.4295 110.977 38.014 109.982L42.1149 102.95L42.454 103.054L41.9334 111.294C41.8576 112.517 41.8806 113.222 42.0316 113.847L42.0234 113.874L39.9042 113.229L39.9131 113.202C40.2886 112.797 40.6113 111.931 40.6887 110.752L40.7645 109.528L38.9308 108.97L38.6133 109.527C37.7745 110.963 37.7396 112.006 37.7939 112.557L37.7857 112.583ZM39.0729 108.746L40.7846 109.268L41.0411 105.354L39.0729 108.746Z" fill="#12535C"/>
<path d="M27.5967 107.75L27.6101 107.724C28.2087 107.104 28.5403 106.699 28.9939 105.798L31.5444 100.741C31.992 99.8538 32.1207 99.3459 32.2634 98.496L32.2761 98.4707L36.2312 100.465L35.5516 102.412L35.4564 102.411C35.3062 101.668 35.2222 100.322 34.8608 100.092L33.6569 99.421L31.56 103.579L32.1683 103.886C32.5743 104.091 33.3439 103.636 33.7707 103.358L33.8592 103.402L32.6769 105.747L32.5877 105.703C32.5512 105.24 32.459 104.319 32.0538 104.114L31.4455 103.807L29.182 108.294L30.5391 108.915C31.1667 109.184 32.4709 108.331 33.3305 107.699L33.3997 107.782L31.9065 109.923L27.5967 107.75Z" fill="#12535C"/>
<path d="M20.8803 102.746L20.8632 102.77L19.2451 101.543L19.263 101.521C19.9947 101.024 20.3546 100.692 21.0409 99.7862L24.3171 95.4645C25.0117 94.5491 25.2273 94.1238 25.5069 93.285L25.524 93.2627L27.4588 94.7291C28.8501 95.7842 28.8917 97.0446 27.9912 98.2329C27.3562 99.0694 26.5159 99.52 25.5203 99.3527L24.2301 102.864C23.8531 103.878 23.7453 104.35 23.7535 104.926L23.7364 104.948L22.4128 103.945L24.3052 98.8411L23.7171 98.395L22.07 100.567C21.3837 101.472 21.1599 101.908 20.8803 102.746ZM27.1346 94.8042C27.0216 94.7186 26.8632 94.5982 26.6847 94.4807L23.871 98.1912L24.358 98.56C25.2399 99.2293 26.1754 98.4425 26.9219 97.458C27.7198 96.4058 28.0284 95.4816 27.1346 94.8042Z" fill="#12535C"/>
<path d="M17.6874 95.816L16.0351 97.1425C15.7935 97.1507 14.7911 97.1024 13.9799 96.2086C12.5871 94.6738 13.4988 92.2557 15.7593 90.2041C18.0198 88.1533 20.6558 87.467 22.1437 89.1073C22.7163 89.7386 22.8598 90.2978 23.0078 90.7774L21.6961 92.1211L21.6076 92.0861C22.111 90.4026 22.2887 89.6472 21.7452 89.0478C20.867 88.0804 18.9322 89.2226 16.7036 91.2459C14.4744 93.2677 13.2824 95.059 14.0832 95.9424C14.7703 96.6994 15.9757 96.2948 17.6621 95.7238L17.6874 95.816Z" fill="#12535C"/>
<path d="M4.13086 79.6157L4.15614 79.6031C5.00904 79.4767 5.51914 79.3577 6.42781 78.9212L11.5326 76.4674C12.4286 76.0368 12.8398 75.7126 13.4711 75.1259L13.4971 75.1133L15.4156 79.1056L13.6904 80.2344L13.6146 80.1756C13.9492 79.4953 14.7032 78.3769 14.5575 77.9746L14.0117 76.709L9.81486 78.7264L10.1101 79.3406C10.3071 79.7496 11.1942 79.8589 11.7013 79.8983L11.7445 79.9883L9.37763 81.1259L9.3345 81.0367C9.58806 80.6463 10.0766 79.8604 9.87955 79.4514L9.58435 78.8372L5.05514 81.0144L5.75188 82.3328C6.08576 82.9292 7.63986 83.0481 8.70617 83.0712L8.71063 83.179L6.22183 83.9657L4.13086 79.6157Z" fill="#12535C"/>
<path d="M1.13672 68.4213L1.16423 68.4138C2.04613 68.48 2.53467 68.4421 3.63444 68.1588L8.88641 66.8062C10.0003 66.5199 10.4323 66.3206 11.1729 65.8365L11.2005 65.8291L11.7068 67.7952L11.6793 67.8026C10.7967 67.7364 10.3223 67.7706 9.20838 68.0576L6.8579 68.6629L7.59033 71.5086L9.94156 70.9034C11.0547 70.6163 11.4875 70.417 12.2281 69.933L12.2556 69.9263L12.7613 71.8923L12.7337 71.899C11.8518 71.8336 11.3774 71.8678 10.2635 72.1541L5.01156 73.5067C3.9118 73.79 3.46564 73.993 2.72577 74.477L2.69826 74.4837L2.19187 72.5177L2.21939 72.511C3.10128 72.5772 3.58982 72.5393 4.68959 72.2559L7.34272 71.5726L6.61028 68.7269L3.95715 69.4102C2.85664 69.6928 2.41049 69.8958 1.67062 70.3799L1.6431 70.3866L1.13672 68.4213Z" fill="#12535C"/>
<path d="M0.688856 61.6776L0.6606 61.6791L0.549805 59.6521L0.578061 59.6506C1.43021 59.8886 1.91652 59.9473 3.0505 59.8849L10.6916 59.4684L10.6373 59.0022C10.5831 58.5219 9.33086 57.9783 8.43855 57.5299L8.46309 57.457L10.8455 57.5976L11.1184 62.6012L8.76573 62.9998L8.73301 62.9165C9.57104 62.387 10.7563 61.697 10.7593 61.2278L10.7615 60.7586L3.12114 61.175C1.98716 61.2367 1.50978 61.3482 0.688856 61.6776Z" fill="#12535C"/>
<path d="M99.7337 41.6545L99.7003 41.6679L98.8994 39.6803L98.9329 39.6669C99.8936 39.6714 100.416 39.5584 101.545 39.104L108.922 36.1326C110.067 35.6709 110.506 35.3972 111.195 34.728L111.229 34.7139L112.26 37.274C113.054 39.2453 112.245 40.6864 110.476 41.3995C109.128 41.9416 107.769 41.8241 106.773 40.9526L103.094 44.118C102.112 44.9836 101.729 45.3926 101.514 46.0268L101.464 46.0469L100.805 44.4133L106.005 39.9703L105.537 38.8081L101.999 40.2328C100.854 40.6938 100.416 40.9682 99.7337 41.6545ZM111.889 37.2279C111.774 36.9417 111.648 36.6792 111.533 36.3929L105.84 38.6854L106.206 39.5955C106.776 41.0098 108.434 40.8507 109.984 40.2268C111.584 39.5821 112.445 38.6095 111.889 37.2279Z" fill="#12535C"/>
<path d="M93.8408 31.5513L93.8713 31.5312C94.7867 31.3104 95.3392 31.1282 96.195 30.5779L103.16 26.1015C104.031 25.5423 104.427 25.1155 104.992 24.3846L105.024 24.3652L107.978 28.9629L106.057 30.6077L105.952 30.546C106.376 29.6261 107.118 28.3286 106.903 27.927L105.682 25.9275L100.657 29.1569L101.393 30.3028C101.638 30.685 102.707 30.6017 103.322 30.5519L103.382 30.6434L100.662 32.3908L100.603 32.2993C100.868 31.8049 101.363 30.8612 101.118 30.4798L100.381 29.3339L94.9733 32.8094L96.311 34.7554C96.7832 35.4239 98.0428 35.3689 99.7695 35.1666L99.7918 35.3027L97.042 36.5311L93.8408 31.5513Z" fill="#12535C"/>
<path d="M90.1719 27.3163L90.1994 27.2918C91.1029 26.9638 91.5542 26.6783 92.4562 25.8618L98.3536 20.5258C99.269 19.6975 99.5857 19.2885 100.001 18.4222L100.028 18.3984L101.466 19.9867L101.439 20.0113C100.523 20.3258 100.085 20.5995 99.1701 21.4278L93.2726 26.7638C92.3573 27.5922 92.0405 28.0012 91.6367 28.8808L91.6092 28.9054L90.1719 27.3163Z" fill="#12535C"/>
<path d="M83.3682 21.6754L83.3905 21.6471C84.2776 21.1266 84.6791 20.7734 85.5 19.7562L90.2895 13.8216C91.1104 12.8043 91.3826 12.3232 91.6934 11.3603L91.7157 11.332L93.3836 12.6779L93.3605 12.7062C92.4704 13.2014 92.0578 13.568 91.2368 14.5852L84.8501 22.4985L86.2979 23.5968C87.0132 24.127 88.1093 23.7522 89.6232 23.0607L89.6857 23.1573L87.5932 25.0855L83.3682 21.6754Z" fill="#12535C"/>
<path d="M74.9541 17.1038L74.9712 17.0719C75.6575 16.4264 76.0472 15.9952 76.5194 15.0947L80.3615 7.7599C80.8418 6.84305 80.9742 6.27718 81.1051 5.36182L81.1222 5.3291L85.9637 7.86549L85.1063 10.2457L84.9844 10.2435C84.8981 9.23444 84.9018 7.73982 84.5167 7.49741L82.4673 6.36195L79.6952 11.6541L80.9013 12.2861C81.3036 12.4966 82.1922 11.8957 82.7023 11.5485L82.799 11.5991L81.2992 14.4619L81.2025 14.4113C81.1884 13.8506 81.1519 12.7858 80.7496 12.5754L79.5435 11.9433L76.5603 17.6377L78.6854 18.6684C79.426 19.0156 80.4946 18.3456 81.8948 17.3158L81.9818 17.4236L80.1979 19.8507L74.9541 17.1038Z" fill="#12535C"/>
<path d="M69.6312 15.4L69.6215 15.435L67.5596 14.8512L67.57 14.8163C68.179 14.0645 68.4095 13.5819 68.7411 12.4115L71.5519 2.48757L70.493 2.22582C69.9294 2.08528 69.0832 3.07203 68.0511 4.25211L67.9559 4.18741L69.1196 1.47852L75.3219 3.23487L74.875 6.14677L74.7605 6.15198C74.5173 4.61126 74.2972 3.32187 73.7604 3.15085L72.7223 2.81921L69.9115 12.7432C69.5754 13.9314 69.5241 14.4452 69.6312 15.4Z" fill="#12535C"/>
<path d="M58.1077 13.541L56.4785 13.4131L56.4807 13.3767C56.9901 12.6881 57.2585 12.0539 57.6467 10.8269L61.0218 0.291016L61.3661 0.317785L63.0675 11.3794C63.2868 12.7625 63.4764 13.3603 63.7947 13.95L63.7917 13.9865L61.5654 13.8117L61.5684 13.776C61.8762 13.3261 62.0212 12.4086 61.8264 11.1735L61.4806 8.85122L58.7108 8.63409L58.1553 10.3756C57.6459 11.9929 57.8423 12.9737 58.1107 13.5046L58.1077 13.541ZM58.8089 8.31361L61.4152 8.51809L60.5675 2.84153L58.8089 8.31361Z" fill="#12535C"/>
<path d="M44.5229 15.2478L42.9235 15.5824L42.916 15.5467C43.2112 14.7429 43.2908 14.0581 43.319 12.7724L43.6016 1.71224L43.9392 1.6416L48.6766 11.7812C49.2759 13.0475 49.6254 13.568 50.0961 14.0447L50.1043 14.0796L47.9181 14.5377L47.91 14.502C48.0802 13.9837 47.962 13.0624 47.4281 11.9314L46.4443 9.79952L43.725 10.3684L43.6804 12.1961C43.6455 13.8915 44.1095 14.7779 44.5155 15.2121L44.5229 15.2478ZM43.7288 10.0338L46.2882 9.49837L43.8812 4.28804L43.7288 10.0338Z" fill="#12535C"/>
<path d="M35.1326 18.9147L35.1185 18.8813C35.0686 17.8536 34.943 17.3346 34.4232 16.1344L31.3908 9.13652C30.8711 7.93711 30.5714 7.47311 29.8628 6.75108L29.8486 6.71762L31.8147 5.86621L31.8288 5.89967C31.8541 6.91765 31.9879 7.45303 32.5077 8.65319L36.5499 17.9837L38.1947 17.2119C38.9963 16.8245 39.1733 15.6794 39.264 14.0174L39.3785 14.007L40.1146 16.7561L35.1326 18.9147Z" fill="#12535C"/>
<path d="M27.2121 24.2901L27.1913 24.2604C26.9325 23.3547 26.728 22.8104 26.1443 21.9776L21.3876 15.2005C20.7927 14.3528 20.3502 13.9758 19.597 13.4397L19.5762 13.4099L24.0503 10.2705L25.7718 12.1228L25.7145 12.2306C24.7783 11.8447 23.4518 11.1561 23.0591 11.3874L21.1109 12.6879L24.5426 17.5785L25.6572 16.7955C26.029 16.5353 25.9026 15.4697 25.8275 14.857L25.9168 14.7945L27.7735 17.4402L27.6843 17.5027C27.1794 17.258 26.2164 16.8022 25.8454 17.0632L24.73 17.8455L28.4227 23.1071L30.3136 21.692C30.9613 21.1924 30.8557 19.9357 30.5828 18.2195L30.7181 18.1912L32.0573 20.889L27.2121 24.2901Z" fill="#12535C"/>
<path d="M22.3152 29.2532L22.3419 29.2778L20.8793 30.8438L20.8525 30.8192C20.4502 29.9462 20.1275 29.5209 19.2382 28.6903L13.4263 23.2614C12.5236 22.4189 12.0901 22.1378 11.1918 21.7965L11.165 21.7712L12.9623 19.8468C14.6235 18.0689 16.4609 18.4682 17.8544 19.7702C19.5795 21.3816 19.9245 23.5662 18.4619 25.1322L17.8789 25.7561L20.0688 27.801C20.9715 28.6442 21.405 28.9246 22.3152 29.2532ZM13.0894 20.1896C12.9288 20.3621 12.7548 20.548 12.5578 20.786L17.6402 25.533L18.1607 24.9754C19.227 23.8339 18.4217 22.0887 16.9888 20.7503C15.1975 19.0772 13.8955 19.327 13.0894 20.1896Z" fill="#12535C"/>
<path d="M16.3095 38.1365L15.4671 39.5359L15.4358 39.5173C15.0477 38.7544 14.6 38.2302 13.6765 37.3349L5.76172 29.6038L5.94018 29.3086L16.5951 32.7336C17.9298 33.1559 18.55 33.2533 19.2192 33.2325L19.2504 33.2511L18.0986 35.1644L18.0674 35.1458C17.8034 34.6691 17.0472 34.1293 15.8552 33.7508L13.6237 33.0221L12.1908 35.4023L13.5003 36.6776C14.719 37.8569 15.6842 38.1194 16.2791 38.1172L16.3095 38.1365ZM11.9484 35.1718L13.2965 32.9314L7.84005 31.1512L11.9484 35.1718Z" fill="#12535C"/>
<path d="M13.549 44.6359L13.5832 44.6485L12.856 46.6636L12.8225 46.6517C12.1087 46.0085 11.6439 45.7446 10.4996 45.3319L3.01756 42.6341C1.85533 42.2155 1.34672 42.1285 0.386744 42.1679L0.352539 42.156L1.24485 39.6791C2.07023 37.3896 3.91731 37.0327 5.71085 37.6796C7.93121 38.4797 9.1098 40.352 8.38256 42.3679L8.09331 43.171L10.9123 44.1867C12.0737 44.6061 12.5824 44.6931 13.549 44.6359ZM1.49692 39.9438C1.41736 40.1654 1.3311 40.4048 1.24336 40.7015L7.78621 43.0602L8.04423 42.3426C8.57441 40.8733 7.14672 39.5869 5.30187 38.9214C2.99526 38.09 1.89772 38.8329 1.49692 39.9438Z" fill="#12535C"/>
<path d="M112.516 37.1717C112.933 38.2097 112.942 39.1444 112.578 39.9252C112.217 40.7015 111.507 41.2808 110.579 41.6548C109.238 42.1946 107.849 42.1247 106.778 41.3112L103.274 44.3265C102.29 45.1943 101.963 45.5594 101.776 46.1148L101.735 46.2353L101.617 46.2821L101.567 46.303L101.312 46.4056L100.478 44.3332L105.676 39.8895L105.385 39.166L102.102 40.4881C101.534 40.7171 101.156 40.8941 100.84 41.0926C100.526 41.2897 100.261 41.5142 99.9288 41.8489L99.8894 41.889L99.8366 41.9098L99.5473 42.0266L98.542 39.5281L98.8305 39.4114L98.8803 39.3913L98.9346 39.392C99.8522 39.3958 100.339 39.2939 101.442 38.8492L108.82 35.8771C109.388 35.6488 109.766 35.4718 110.085 35.2748C110.401 35.0785 110.667 34.8576 111.004 34.5304L111.042 34.4925L111.092 34.4724L111.127 34.4591L111.382 34.3564L112.516 37.1717ZM111.195 34.7282C110.506 35.3975 110.068 35.6711 108.922 36.1329L101.545 39.1043C100.417 39.5586 99.8938 39.6716 98.9331 39.6672L98.8997 39.6805L99.7005 41.6682L99.734 41.6548C100.417 40.9684 100.854 40.6941 102 40.233L105.537 38.8083L106.005 39.9706L100.805 44.4135L101.464 46.0472L101.514 46.0271C101.729 45.3928 102.112 44.9838 103.094 44.1183L106.773 40.9528C107.738 41.7968 109.044 41.9344 110.35 41.4481L110.477 41.3997C112.19 40.7089 113.003 39.3348 112.33 37.458L112.26 37.2743L111.229 34.7141L111.195 34.7282ZM111.533 36.3931C111.649 36.6794 111.774 36.9419 111.889 37.2282C112.445 38.6098 111.585 39.5824 109.984 40.2271L109.839 40.2843C108.357 40.8502 106.809 40.9625 106.234 39.6605L106.206 39.5958L105.84 38.6856L111.533 36.3931ZM106.198 38.8381L106.461 39.4924C106.701 40.0865 107.154 40.3498 107.752 40.4018C108.369 40.4554 109.124 40.2769 109.882 39.972C110.66 39.6582 111.218 39.279 111.52 38.8462C111.808 38.4328 111.881 37.9435 111.634 37.3316C111.578 37.1925 111.52 37.0587 111.459 36.9211C111.434 36.8646 111.409 36.8073 111.384 36.7493L106.198 38.8381Z" fill="#12535C"/>
<path d="M108.339 29.0162L106.086 30.9451L105.598 30.6559L105.702 30.4306C105.926 29.9435 106.2 29.426 106.414 28.933C106.518 28.6928 106.596 28.4816 106.637 28.3128C106.657 28.228 106.666 28.1633 106.666 28.115C106.666 28.0816 106.662 28.0645 106.66 28.0585L105.593 26.3111L101.036 29.2393L101.624 30.1539C101.634 30.1703 101.675 30.2097 101.794 30.2469C101.907 30.2826 102.058 30.3049 102.234 30.3146C102.588 30.3339 102.99 30.3027 103.3 30.2774L103.464 30.264L103.762 30.7265L100.58 32.7714L100.372 32.4479L100.284 32.3118L100.36 32.1691C100.494 31.9207 100.675 31.5772 100.793 31.253C100.853 31.0901 100.892 30.9451 100.904 30.8261C100.917 30.7027 100.898 30.6469 100.886 30.6283L100.298 29.7137L95.3608 32.8866L96.5349 34.5969L96.5677 34.6385C96.7394 34.8438 97.0577 34.9731 97.5908 35.0133C98.1508 35.0549 98.8728 34.9947 99.7376 34.8928L99.9971 34.8623L100.041 35.1211L100.063 35.2572L100.099 35.4669L96.938 36.8782L93.4609 31.4686L93.6922 31.3191L93.7234 31.2998L93.7613 31.2745L93.8074 31.2641C94.7042 31.047 95.224 30.8745 96.0457 30.3465L103.012 25.8701C103.849 25.3318 104.222 24.9302 104.775 24.2164L104.804 24.1785L104.844 24.1532L104.874 24.1331L105.106 23.9844L108.339 29.0162ZM104.993 24.3844C104.427 25.1154 104.031 25.5422 103.16 26.1014L96.1951 30.5778L96.0382 30.6767C95.2686 31.1503 94.7295 31.3236 93.8714 31.5311L93.8409 31.5511L97.0421 36.531L99.7919 35.3026L99.7695 35.1665C98.0972 35.3628 96.8621 35.42 96.3572 34.8162L96.3111 34.7553L94.9734 32.8093L100.381 29.3338L101.118 30.4796C101.363 30.8611 100.869 31.8047 100.603 32.2992L100.662 32.3907L103.382 30.6432L103.322 30.5518C102.727 30.6001 101.704 30.6797 101.417 30.3376L101.393 30.3027L100.657 29.1568L105.682 25.9274L106.903 27.9269C107.118 28.3284 106.376 29.626 105.952 30.5458L106.057 30.6075L107.978 28.9627L105.024 24.3651L104.993 24.3844Z" fill="#12535C"/>
<path d="M101.856 20.0053L101.651 20.1905L101.624 20.2143L101.582 20.2522L101.528 20.2708C101.082 20.424 100.765 20.563 100.451 20.7593C100.133 20.9579 99.8093 21.2204 99.3549 21.6308L93.4575 26.9676C93.0039 27.378 92.7095 27.6747 92.4804 27.9707C92.2544 28.2644 92.0834 28.5655 91.887 28.9946L91.864 29.0459L91.8216 29.0838L91.7948 29.1084L91.5911 29.2928L89.7842 27.2962L89.9887 27.1111L90.0154 27.0873L90.0548 27.0508L90.1054 27.0323C90.968 26.7199 91.3896 26.4552 92.2722 25.6574L98.1689 20.3206C98.6232 19.9101 98.9177 19.6135 99.1482 19.3183C99.3772 19.0253 99.5505 18.7256 99.7542 18.3025L99.7773 18.2542L99.8442 18.1932L100.049 18.0088L101.856 20.0053ZM100.002 18.4215C99.5862 19.2878 99.2694 19.6967 98.354 20.5251L92.4566 25.8611L92.2923 26.0083C91.4967 26.7133 91.0468 26.9839 90.1998 27.291L90.1723 27.3156L91.6097 28.9046L91.6372 28.8801C92.0157 28.0554 92.3176 27.6442 93.108 26.914L93.2731 26.7631L99.1705 21.4271C100.086 20.5987 100.524 20.3251 101.439 20.0105L101.466 19.986L100.029 18.3977L100.002 18.4215Z" fill="#12535C"/>
<path d="M93.7692 12.6353L93.5974 12.8494L93.5744 12.8777L93.5402 12.9193L93.4941 12.9453C93.0591 13.187 92.752 13.3915 92.4553 13.6547C92.1556 13.9202 91.8582 14.2526 91.4507 14.7575L85.2425 22.4499L86.4612 23.3749C86.7289 23.5735 87.0888 23.6225 87.6049 23.5162C88.1239 23.4099 88.7515 23.1556 89.5084 22.8098L89.7263 22.7109L90.0416 23.2024L87.6041 25.4473L82.9805 21.716L83.1537 21.5018L83.176 21.4736L83.208 21.4342L83.2511 21.4089C83.6861 21.1538 83.991 20.9456 84.2862 20.6816C84.5836 20.4162 84.8781 20.0875 85.2856 19.5826L90.0751 13.6473C90.8811 12.6501 91.1324 12.198 91.4306 11.2752L91.447 11.2262L91.479 11.1867L91.5013 11.1585L91.6745 10.9443L93.7692 12.6353ZM91.6931 11.3593C91.3823 12.3222 91.1101 12.8033 90.2892 13.8205L85.4998 19.7551L85.351 19.9381C84.6268 20.8177 84.2223 21.1583 83.3902 21.6461L83.3679 21.6743L87.593 25.0844L89.6854 23.1563L89.623 23.0596C88.1559 23.7296 87.0814 24.1029 86.3653 23.6426L86.2976 23.5958L84.8499 22.4975L91.2365 14.5842C92.0575 13.567 92.4702 13.2004 93.3602 12.7052L93.3833 12.6769L91.7154 11.331L91.6931 11.3593Z" fill="#12535C"/>
<path d="M86.3035 7.73308L85.2981 10.5245L84.7315 10.5134L84.7107 10.2665C84.6646 9.7326 84.6475 9.14665 84.5888 8.61275C84.5605 8.3525 84.5248 8.13016 84.4757 7.9636C84.4519 7.88032 84.4266 7.81934 84.4036 7.7777C84.3865 7.74721 84.3746 7.73457 84.3709 7.73085L82.5796 6.7389L80.0662 11.538L81.0292 12.0422L80.9013 12.2861L79.6952 11.654L82.4673 6.3619L84.5166 7.49737C84.9018 7.73978 84.8981 9.23439 84.9843 10.2434L85.1063 10.2457L85.9636 7.86544L81.1221 5.32906L81.105 5.36178C80.9742 6.27714 80.8418 6.84301 80.3614 7.75985L76.5193 15.0946L76.4316 15.2582C75.9973 16.0501 75.6144 16.4665 74.9712 17.0718L74.9541 17.1038L80.1978 19.8506L81.9817 17.4235L81.8947 17.3157C80.4945 18.3456 79.426 19.0156 78.6854 18.6683L76.5602 17.6377L79.5435 11.9433L80.7496 12.5753C81.1519 12.7858 81.1883 13.8506 81.2024 14.4113L81.2991 14.4618L82.7989 11.599L82.7023 11.5484C82.1922 11.8957 81.3036 12.4965 80.9013 12.2861L81.0292 12.0422C81.0463 12.0511 81.1006 12.066 81.2218 12.0392C81.3385 12.0139 81.4798 11.9589 81.6389 11.8801C81.955 11.7224 82.2896 11.4964 82.5469 11.3209L82.6837 11.228L83.17 11.483L81.4151 14.8336L80.931 14.5801L80.9273 14.418C80.9206 14.1361 80.908 13.7487 80.85 13.4074C80.8217 13.2371 80.7831 13.0914 80.7355 12.9821C80.6864 12.8683 80.641 12.8289 80.6217 12.8192L79.6595 12.3151L76.9357 17.5143L78.8036 18.42C79.0579 18.5389 79.4111 18.5025 79.925 18.2593C80.4328 18.0199 81.0307 17.6094 81.7319 17.0941L81.9423 16.9387L82.1081 17.1425L82.1951 17.2495L82.3297 17.4146L80.2796 20.2038L74.583 17.2198L74.7102 16.9759L74.7273 16.9439L74.7488 16.903L74.7823 16.8711C75.4545 16.239 75.8218 15.8315 76.2754 14.9667L80.1175 7.63196C80.5793 6.7508 80.705 6.21691 80.8329 5.32237L80.8396 5.27552L80.8611 5.23388L80.8782 5.2019L81.0061 4.95801L86.3035 7.73308Z" fill="#12535C"/>
<path d="M75.1129 6.41157L74.527 6.43833L74.4883 6.19518C74.3664 5.42036 74.2526 4.73031 74.1061 4.21277C74.0325 3.95475 73.9544 3.75472 73.8719 3.61567C73.7879 3.47364 73.7187 3.4268 73.6771 3.41341L72.9089 3.16803L70.1762 12.8183C70.0097 13.4073 69.9182 13.8155 69.8788 14.188C69.8453 14.5115 69.8498 14.8164 69.887 15.2001L69.9048 15.3696L69.9108 15.4231L69.8959 15.4752L69.8862 15.5101L69.8111 15.7748L67.2197 15.0409L67.2948 14.7762L67.3045 14.7413L67.3201 14.6877L67.3558 14.6431C67.6525 14.2773 67.8488 13.9865 68.0124 13.6504C68.1767 13.3121 68.3121 12.9172 68.4764 12.3372L71.2091 2.68692L70.4268 2.49285C70.3777 2.48095 70.2915 2.48541 70.1465 2.56126C70.0022 2.63636 69.832 2.765 69.6342 2.94718C69.2371 3.3108 68.779 3.838 68.2578 4.43362L68.0979 4.61654L67.8964 4.47972L67.6138 4.28713L68.962 1.14844L75.6305 3.03641L75.1129 6.41157ZM69.1196 1.47859L67.9559 4.18749L68.0511 4.25218C69.0512 3.10928 69.8766 2.14708 70.4395 2.21623L70.493 2.2259L71.5519 2.48764L68.7411 12.4116C68.4095 13.582 68.179 14.0646 67.57 14.8164L67.5595 14.8513L69.6215 15.435L69.6312 15.4001C69.5308 14.5048 69.5695 13.9969 69.852 12.9581L69.9115 12.7432L72.7223 2.81928L73.7603 3.15092C74.2972 3.32195 74.5173 4.61133 74.7605 6.15205L74.875 6.14685L75.3219 3.23495L69.1196 1.47859Z" fill="#12535C"/>
<path d="M61.3416 13.6203C61.4606 13.4463 61.5655 13.1534 61.6131 12.7384C61.6599 12.3272 61.6495 11.8142 61.5551 11.2163L61.5543 11.2141L61.2405 9.10897L58.9064 8.92531L58.4178 10.4593C57.9553 11.9279 58.1055 12.8135 58.3137 13.2909L58.3561 13.3809L58.3903 13.4501L58.3844 13.5266L58.3822 13.5631L58.3606 13.8367L56.1826 13.6664L56.2042 13.3921L56.2072 13.3556L56.2131 13.2775L56.26 13.2136C56.7418 12.5622 56.9991 11.9621 57.3843 10.7449L60.8271 0L61.6049 0.0609744L63.3389 11.3368C63.5427 12.6224 63.7174 13.1972 63.9829 13.717L64.0372 13.8204L64.0751 13.891L64.0691 13.9721L64.0662 14.0085L64.0446 14.2829L61.2695 14.065L61.2911 13.7906L61.2941 13.7549L61.2993 13.6813L61.3416 13.6203ZM61.0219 0.291487L57.6467 10.8274C57.2586 12.0543 56.9902 12.6886 56.4808 13.3772L56.4786 13.4136L58.1078 13.5415L58.1107 13.5051C57.8423 12.9742 57.646 11.9934 58.1554 10.3761L58.7108 8.63456L61.4807 8.85169L61.8265 11.1739C62.0213 12.409 61.8763 13.3266 61.5684 13.7765L61.5655 13.8122L63.7918 13.9869L63.7947 13.9505C63.4765 13.3608 63.2869 12.763 63.0675 11.3799L61.3662 0.318256L61.0219 0.291487ZM61.4153 8.51856L58.809 8.31408L60.5676 2.842L61.4153 8.51856ZM59.1771 8.06721L61.0925 8.21741L60.4694 4.04662L59.1771 8.06721Z" fill="#12535C"/>
<path d="M48.9261 11.664C49.4823 12.8404 49.811 13.343 50.2118 13.7676L50.2928 13.8517L50.3501 13.9089L50.3731 14.0242L50.4296 14.2934L47.7051 14.8637L47.6486 14.5938L47.6412 14.5588L47.6263 14.4867L47.6493 14.416C47.7155 14.216 47.7334 13.9052 47.662 13.494C47.5921 13.0858 47.4382 12.5965 47.1794 12.0492L47.1787 12.047L46.2863 10.1136L43.9946 10.5933L43.9559 12.2031C43.9247 13.7416 44.3166 14.5499 44.6512 14.9499L44.7166 15.0243L44.7694 15.0808L44.785 15.1559L44.7925 15.1916L44.849 15.4608L42.7104 15.9084L42.6547 15.6393L42.6472 15.6036L42.6309 15.5262L42.6584 15.4526C42.938 14.6912 43.0168 14.0428 43.0443 12.7668V12.766L43.3328 1.488L44.0972 1.32812L48.9261 11.664ZM43.602 1.71256L43.3194 12.7727C43.2912 14.0584 43.2116 14.7432 42.9164 15.547L42.9238 15.5827L44.5233 15.2481L44.5159 15.2124C44.1099 14.7782 43.6459 13.8918 43.6808 12.1964L43.7254 10.3687L46.4447 9.79984L47.4285 11.9317C47.9624 13.0627 48.0806 13.984 47.9103 14.5023L47.9185 14.538L50.1047 14.0799L50.0965 14.045C49.6258 13.5684 49.2763 13.0478 48.677 11.7815L43.9396 1.64192L43.602 1.71256ZM46.2886 9.49869L43.7291 10.0341L43.8816 4.28836L46.2886 9.49869ZM44.0132 9.69351L45.8937 9.30015L44.1247 5.47215L44.0132 9.69351Z" fill="#12535C"/>
<path d="M32.0815 5.79019L32.1023 5.83927L32.1038 5.89206C32.1164 6.38952 32.1551 6.75685 32.2503 7.14203C32.3454 7.53093 32.5016 7.94809 32.7596 8.5437L36.6895 17.614L38.0748 16.9641C38.3752 16.8191 38.5856 16.5232 38.7314 16.0168C38.8779 15.5074 38.944 14.8337 38.9894 14.0024L39.0028 13.7637L39.24 13.7429L39.5843 13.7131L40.4416 16.9143L34.9896 19.2759L34.8803 19.0239L34.8655 18.9904L34.8454 18.9443L34.8432 18.8945C34.8186 18.3903 34.7762 18.023 34.6803 17.6393C34.5829 17.2526 34.4282 16.8392 34.1702 16.2436L31.1386 9.24565C30.6285 8.06929 30.3459 7.63652 29.6663 6.9435L29.6306 6.90706L29.4863 6.57468L31.9573 5.50391L32.0815 5.79019ZM29.8485 6.71744L29.8626 6.75091C30.5712 7.47293 30.8709 7.93693 31.3907 9.13634L34.423 16.1343C34.9428 17.3344 35.0685 17.8534 35.1183 18.8811L35.1324 18.9145L40.1145 16.7559L39.3783 14.0069L39.2638 14.0173C39.1731 15.6792 38.9961 16.8243 38.1945 17.2117L36.5497 17.9836L32.5075 8.65301C31.9878 7.45285 31.8539 6.91747 31.8286 5.8995L31.8145 5.86603L29.8485 6.71744Z" fill="#12535C"/>
<path d="M24.251 10.0835L26.107 12.0807L26.0133 12.254L25.9553 12.3611L25.8378 12.5797L25.6088 12.4853C25.1128 12.2808 24.5849 12.0272 24.083 11.8346C23.8391 11.7402 23.6249 11.671 23.4539 11.6376C23.3691 11.6205 23.3037 11.6145 23.2561 11.6167C23.2219 11.6175 23.2048 11.6227 23.1996 11.6242L21.4968 12.7611L24.6087 17.1952L25.4988 16.5705C25.5144 16.5594 25.5523 16.5177 25.585 16.398C25.6155 16.2828 25.6311 16.1318 25.6341 15.9548C25.6393 15.6016 25.5917 15.2001 25.5538 14.8908L25.533 14.7272L25.6683 14.632L25.7583 14.5695L25.9828 14.4119L28.1556 17.5075L27.9303 17.6658L27.8411 17.7283L27.7087 17.8213L27.5637 17.7506C27.3102 17.6279 26.9592 17.4614 26.6305 17.3558C26.4654 17.303 26.3182 17.2703 26.1992 17.2628C26.075 17.2546 26.02 17.2762 26.0022 17.2888L25.1128 17.9127L28.4843 22.717L30.1447 21.4738C30.3678 21.302 30.4979 20.9718 30.518 20.403C30.5373 19.8416 30.4474 19.1225 30.3105 18.2629L30.2689 18.0042L30.869 17.8778L32.4082 20.9793L27.1443 24.6734L26.9859 24.4481L26.9651 24.4184L26.9384 24.3805L26.9257 24.3358C26.6729 23.4495 26.4788 22.9357 25.9182 22.1363L21.1614 15.3585C20.5896 14.5443 20.1724 14.1881 19.437 13.6638L19.3984 13.6371L19.35 13.5679L19.1924 13.3434L24.0874 9.90723L24.251 10.0835ZM19.5753 13.4103L19.5962 13.44C20.3494 13.9761 20.7918 14.3531 21.3867 15.2008L26.1435 21.9779C26.7272 22.8107 26.9317 23.355 27.1904 24.2607L27.2113 24.2905L32.0565 20.8893L30.7173 18.1916L30.5819 18.2198C30.8548 19.936 30.9604 21.1927 30.3128 21.6924L28.4218 23.1074L24.7292 17.8458L25.8445 17.0635C26.2156 16.8025 27.1785 17.2584 27.6834 17.503L27.7727 17.4405L25.9159 14.7948L25.8267 14.8573C25.9018 15.47 26.0282 16.5356 25.6564 16.7958L24.5418 17.5788L21.1101 12.6883L23.0583 11.3877C23.4018 11.1855 24.46 11.6874 25.3463 12.074L25.7137 12.2309L25.7709 12.1231L24.0495 10.2708L19.5753 13.4103Z" fill="#12535C"/>
<path d="M15.5229 18.3794C16.4494 18.424 17.3165 18.8895 18.0437 19.5692C18.9434 20.4094 19.4997 21.4147 19.6275 22.4342C19.7569 23.4596 19.4506 24.4783 18.6639 25.3208L18.2698 25.7432L20.2581 27.6007C20.7058 28.0186 21.0255 28.2863 21.3393 28.4893C21.6509 28.6908 21.9661 28.835 22.4101 28.9949L22.4629 29.0142L22.5045 29.0522L22.5313 29.0774L22.732 29.2648L20.8939 31.2331L20.6269 30.984L20.6046 30.9349C20.2202 30.1021 19.9213 29.7035 19.052 28.8915L13.2394 23.4633C12.7917 23.0447 12.4712 22.777 12.1574 22.5718C11.8466 22.368 11.5336 22.2208 11.0949 22.0535L11.0443 22.0349L10.7773 21.7851L12.7627 19.6599C13.6372 18.7229 14.5868 18.3348 15.5229 18.3794ZM17.8556 19.7707C16.4621 18.4686 14.6247 18.0693 12.9635 19.8473L11.1662 21.7717L11.193 21.7969C12.0913 22.1383 12.5248 22.4193 13.4275 23.2618L19.2394 28.6908C20.1287 29.5214 20.4514 29.9467 20.8537 30.8197L20.8805 30.8442L22.3431 29.2782L22.3164 29.2537C21.4627 28.9458 21.0285 28.6796 20.2343 27.9531L20.07 27.8014L17.8801 25.7566L18.4631 25.1327C19.9257 23.5667 19.5807 21.382 17.8556 19.7707ZM13.0907 20.1901C13.8967 19.3275 15.1987 19.0776 16.99 20.7507C18.4229 22.0892 19.2282 23.8344 18.1619 24.9758L17.6414 25.5335L12.559 20.7864C12.6579 20.6674 12.7501 20.5611 12.8386 20.4637L13.0907 20.1901ZM16.8027 20.9515C15.9319 20.1387 15.2166 19.8279 14.6544 19.7945C14.1027 19.761 13.6513 19.993 13.2922 20.3782C13.1799 20.4979 13.0639 20.6228 12.939 20.7648L17.628 25.1446L17.9612 24.7884C18.4073 24.3103 18.4765 23.7028 18.2519 23.0239C18.0244 22.3353 17.4987 21.6021 16.8027 20.9515Z" fill="#12535C"/>
<path d="M19.3616 32.9964L19.3928 33.015L19.6285 33.157L18.1927 35.5417L17.9569 35.3996L17.9257 35.3811L17.8625 35.3431L17.8268 35.2792C17.7249 35.094 17.5093 34.8702 17.1598 34.6419C16.8133 34.4159 16.3493 34.1958 15.7723 34.0129L15.77 34.0121L13.7467 33.3511L12.5391 35.3573L13.6917 36.4793L13.8018 36.5842C14.9283 37.6349 15.7871 37.8438 16.2779 37.8416H16.3552L16.4207 37.881L16.4519 37.9003L16.6876 38.0416L15.5611 39.9132L15.3254 39.772L15.2941 39.7526L15.2272 39.7117L15.1908 39.6418C14.8234 38.9191 14.4018 38.4201 13.4857 37.5323L13.485 37.5315L5.41406 29.648L5.81709 28.9795L16.6794 32.4714C18.0015 32.8893 18.5868 32.9763 19.2114 32.957L19.2917 32.954L19.3616 32.9964ZM19.2195 33.2321C18.5503 33.2529 17.9302 33.1555 16.5954 32.7331L5.94052 29.3082L5.76206 29.6034L13.6768 37.3345C14.6004 38.2297 15.048 38.754 15.4362 39.5169L15.4674 39.5355L16.3099 38.1361L16.2794 38.1167C15.7031 38.119 14.7796 37.8721 13.6136 36.785L13.5006 36.6771L12.1911 35.4019L13.624 33.0216L15.8555 33.7504C17.0475 34.1289 17.8038 34.6687 18.0677 35.1453L18.099 35.1639L19.2508 33.2507L19.2195 33.2321ZM11.9487 35.1714L7.8404 31.1508L13.2969 32.9309L11.9487 35.1714ZM8.87399 31.7776L11.8922 34.7312L12.8827 33.0849L8.87399 31.7776Z" fill="#12535C"/>
<path d="M5.80446 37.4217C6.96223 37.8388 7.86941 38.5438 8.38918 39.4294C8.91192 40.3209 9.03239 41.3783 8.64126 42.4625L8.44569 43.0068L11.0051 43.9288C11.5814 44.137 11.9807 44.2568 12.3495 44.3192C12.7154 44.3817 13.0619 44.3899 13.5326 44.3624L13.5891 44.3586L13.9349 44.4836L13.0217 47.017L12.7288 46.9114L12.6782 46.8928L12.6381 46.8571C11.9569 46.2429 11.5256 45.9945 10.4058 45.5915L2.92379 42.8938C2.34751 42.6863 1.94746 42.5658 1.57864 42.5011C1.21205 42.4365 0.866282 42.4246 0.397821 42.4439L0.343538 42.4461L0.292974 42.4275L0 42.3219L0.986 39.5863C1.421 38.3809 2.14005 37.6492 3.01823 37.3213C3.88749 36.9971 4.86754 37.0834 5.80446 37.4217ZM8.38249 42.3688C9.10972 40.3529 7.93113 38.4806 5.71077 37.6805C3.91723 37.0335 2.07015 37.3905 1.24477 39.68L0.352462 42.1569L0.386667 42.1688C1.28641 42.1316 1.79056 42.2059 2.80705 42.5606L3.01749 42.635L10.4995 45.3327C11.6439 45.7454 12.1086 46.0094 12.8225 46.6526L12.8559 46.6645L13.5832 44.6494L13.5489 44.6367L13.3727 44.6457C12.5161 44.6814 12.0008 44.5802 10.9122 44.1876L8.09323 43.1719L8.38249 42.3688ZM5.3018 38.9222C7.14664 39.5878 8.57433 40.8742 8.04415 42.3435L7.78613 43.0611L1.24328 40.7024L1.30872 40.4897C1.33028 40.4221 1.35185 40.3574 1.37267 40.2957L1.49685 39.9447C1.885 38.8687 2.92751 38.1378 5.08913 38.8494L5.3018 38.9222ZM7.35782 40.5135C6.87672 39.9715 6.10413 39.5045 5.2081 39.181C4.08751 38.7772 3.30749 38.7735 2.77805 38.9639C2.25754 39.1513 1.93482 39.5424 1.75636 40.0376C1.70059 40.1923 1.64333 40.3522 1.58459 40.5329L7.62031 42.7086L7.78538 42.2506C8.00772 41.6356 7.83223 41.0489 7.35782 40.5135Z" fill="#12535C"/>
<path d="M42.1747 64.7179C42.1747 66.9316 40.5135 68.7259 38.4634 68.7259C36.4141 68.7259 34.7529 66.9316 34.7529 64.7179C34.7529 62.5042 36.4141 60.71 38.4634 60.71C40.5135 60.71 42.1747 62.5042 42.1747 64.7179Z" fill="#12535C"/>
<path d="M78.6168 68.0419C76.6998 69.1484 74.3151 68.6071 73.2897 66.8321C72.265 65.0572 72.9885 62.7208 74.9055 61.6144C76.8225 60.5071 79.2072 61.0492 80.2319 62.8242C81.2565 64.5991 80.5337 66.9355 78.6168 68.0419Z" fill="#12535C"/>
<path d="M61.4496 77.7836C61.5634 77.7055 61.7002 77.6728 61.8325 77.6936C61.9656 77.7152 62.0854 77.7873 62.1701 77.8966C62.2549 78.0059 62.2958 78.1428 62.2973 78.2788C62.2832 78.5644 62.2534 78.7822 62.2051 79.0254C61.9069 81.2019 59.4828 83.133 57.1925 82.9954C57.1866 82.9954 57.1814 82.9954 57.1754 82.9962C54.8815 83.1516 52.4499 81.2562 52.1049 79.0894C52.0521 78.8477 52.0172 78.6298 51.9971 78.345C51.9963 78.2089 52.0343 78.0714 52.1168 77.9606C52.1986 77.8498 52.3176 77.7739 52.4492 77.7501C52.5815 77.7263 52.7191 77.7561 52.8351 77.8319C52.9504 77.907 53.0336 78.023 53.0805 78.1502C53.1444 78.284 53.2389 78.4766 53.3326 78.6343C54.2234 80.1631 55.5715 80.8227 57.1673 80.7951C57.171 80.7951 57.1754 80.7944 57.1792 80.7944C58.7756 80.8078 60.1104 80.14 60.9685 78.5956C61.0592 78.4357 61.1492 78.2417 61.2109 78.1071C61.254 77.9784 61.3351 77.8617 61.4496 77.7836Z" fill="#12535C"/>
<path d="M4.62634 54.9314C4.6189 52.8821 2.95847 51.2239 0.912109 51.2239C2.96293 51.2239 4.62634 49.5575 4.62634 47.5029C4.63378 49.5515 6.29347 51.2097 8.34057 51.2097C6.28901 51.2097 4.62634 52.8761 4.62634 54.9314Z" fill="#12535C"/>
<path d="M108.625 54.9314C108.617 52.8821 106.957 51.2239 104.91 51.2239C106.962 51.2239 108.625 49.5575 108.625 47.5029C108.633 49.5515 110.292 51.2097 112.339 51.2097C110.288 51.2097 108.625 52.8761 108.625 54.9314Z" fill="#12535C"/>
</g>
</g>
<defs>
<clipPath id="clip0_243_414">
<rect width="116" height="116" fill="white"/>
</clipPath>
<clipPath id="clip1_243_414">
<rect width="116" height="116" fill="white"/>
</clipPath>
</defs>
</svg>
