<svg width="1392" height="441" viewBox="0 0 1392 441" fill="none" xmlns="http://www.w3.org/2000/svg">
<rect width="1392" height="441" fill="#EDEDED"/>
<g id="www.papela-atelier.com">
<path d="M-124 -536.5C-124 -537.605 -123.105 -538.5 -122 -538.5H2004C2005.1 -538.5 2006 -537.605 2006 -536.5V5714.57C2006 5715.67 2005.1 5716.57 2004 5716.57H-122C-123.105 5716.57 -124 5715.67 -124 5714.57V-536.5Z" fill="white"/>
<path d="M-122 -538.5V-537.5H2004V-538.5V-539.5H-122V-538.5ZM2006 -536.5H2005V5714.57H2006H2007V-536.5H2006ZM2004 5716.57V5715.57H-122V5716.57V5717.57H2004V5716.57ZM-124 5714.57H-123V-536.5H-124H-125V5714.57H-124ZM-122 5716.57V5715.57C-122.552 5715.57 -123 5715.12 -123 5714.57H-124H-125C-125 5716.23 -123.657 5717.57 -122 5717.57V5716.57ZM2006 5714.57H2005C2005 5715.12 2004.55 5715.57 2004 5715.57V5716.57V5717.57C2005.66 5717.57 2007 5716.23 2007 5714.57H2006ZM2004 -538.5V-537.5C2004.55 -537.5 2005 -537.052 2005 -536.5H2006H2007C2007 -538.157 2005.66 -539.5 2004 -539.5V-538.5ZM-122 -538.5V-539.5C-123.657 -539.5 -125 -538.157 -125 -536.5H-124H-123C-123 -537.052 -122.552 -537.5 -122 -537.5V-538.5Z" fill="black" fill-opacity="0.1"/>
<g id="1440w light">
<rect width="1440" height="4812" transform="translate(-24 -438.5)" fill="white"/>
<g id="End of bodyStart &#226;&#134;&#146; Container Content">
<rect width="1440" height="4812" transform="translate(-24 -438.5)" fill="white"/>
<rect width="1440" height="4812" transform="translate(-24 -438.5)" fill="#F0EFEB"/>
<g id="Header">
<g clip-path="url(#clip0_31_3)">
<rect y="-414.5" width="1392" height="855" rx="48" fill="#12535C"/>
<g id="header">
<g id="Container">
<g id="7mFpKylGbuB7Veobj7XMAqHuaE.svg">
<g id="7mFpKylGbuB7Veobj7XMAqHuaE.svg_2" clip-path="url(#clip1_31_3)">
<path id="Vector" d="M864.984 271.314C876.502 294.712 907.345 334.037 995.323 300.643C1104.1 259.357 1331.53 279.964 1457.77 390.325M864.984 271.314C862.261 265.785 860.617 261.143 859.555 258.563C856.233 250.495 861.138 246.328 865.113 247.716C867.789 248.648 870.875 251.417 869.083 258.563C867.993 262.897 866.624 267.156 864.984 271.314ZM864.984 271.314C779.94 487.307 -39.135 506.19 -66.2061 133.911" stroke="#F3E6CF" stroke-opacity="0.675" stroke-width="1.58793" stroke-linecap="round"/>
</g>
</g>
</g>
</g>
</g>
</g>
</g>
</g>
</g>
<defs>
<clipPath id="clip0_31_3">
<rect y="-414.5" width="1392" height="855" rx="48" fill="white"/>
</clipPath>
<clipPath id="clip1_31_3">
<rect width="1526" height="293.767" fill="white" transform="translate(-67 133.117)"/>
</clipPath>
</defs>
</svg>
